<?xml version="1.0" encoding="UTF-8"?>
<!DOCTYPE svg PUBLIC "-//W3C//DTD SVG 1.1//EN" "http://www.w3.org/Graphics/SVG/1.1/DTD/svg11.dtd">
<svg xmlns="http://www.w3.org/2000/svg" version="1.1" width="277px" height="277px" style="shape-rendering:geometricPrecision; text-rendering:geometricPrecision; image-rendering:optimizeQuality; fill-rule:evenodd; clip-rule:evenodd" xmlns:xlink="http://www.w3.org/1999/xlink">
<g><path style="opacity:1" fill="#7a81e7" d="M 171.5,81.5 C 169.205,82.1355 167.539,83.4689 166.5,85.5C 162.845,87.8294 158.845,89.1628 154.5,89.5C 150.167,89.5 145.833,89.5 141.5,89.5C 141.999,83.9415 141.333,78.6082 139.5,73.5C 137.929,70.7687 135.595,68.9354 132.5,68C 106.844,68.2963 81.1769,68.463 55.5,68.5C 41.1667,68.5 26.8333,68.5 12.5,68.5C 45.9975,67.6675 79.6642,67.1675 113.5,67C 106.729,45.8676 113.062,29.8676 132.5,19C 152.341,12.3922 168.175,17.5589 180,34.5C 186.487,48.5439 185.821,62.2106 178,75.5C 175.963,77.7059 173.797,79.7059 171.5,81.5 Z"/></g>
<g><path style="opacity:1" fill="#6367b7" d="M 222.5,37.5 C 226.646,36.353 230.98,36.1864 235.5,37C 238.599,37.3874 241.266,38.5541 243.5,40.5C 236.803,38.02 229.803,37.02 222.5,37.5 Z"/></g>
<g><path style="opacity:1" fill="#5059c9" d="M 222.5,37.5 C 229.803,37.02 236.803,38.02 243.5,40.5C 244.539,42.5311 246.205,43.8645 248.5,44.5C 249.72,46.6633 249.72,48.83 248.5,51C 248.833,51.5 249.167,52 249.5,52.5C 250.251,51.624 250.751,50.624 251,49.5C 254.334,56.4505 255.334,63.7839 254,71.5C 251.961,72.9783 251.128,74.9783 251.5,77.5C 250.5,77.5 249.5,77.5 248.5,77.5C 248.5,79.1667 248.5,80.8333 248.5,82.5C 246.599,84.7957 244.266,86.629 241.5,88C 239.564,88.813 237.564,89.313 235.5,89.5C 230.13,89.6079 224.797,89.2745 219.5,88.5C 212.897,86.2299 208.231,81.8966 205.5,75.5C 205.481,73.9397 205.148,72.4397 204.5,71C 205.707,69.6998 206.374,68.1998 206.5,66.5C 205.5,66.5 204.5,66.5 203.5,66.5C 203.336,63.8127 203.503,61.146 204,58.5C 204.977,54.3037 206.477,50.3037 208.5,46.5C 211.844,41.4919 216.51,38.4919 222.5,37.5 Z"/></g>
<g><path style="opacity:1" fill="#6b6fbd" d="M 243.5,40.5 C 245.754,41.1237 247.421,42.457 248.5,44.5C 246.205,43.8645 244.539,42.5311 243.5,40.5 Z"/></g>
<g><path style="opacity:1" fill="#5e60bd" d="M 248.5,44.5 C 259.095,57.1552 259.095,69.8218 248.5,82.5C 248.5,80.8333 248.5,79.1667 248.5,77.5C 249.5,77.5 250.5,77.5 251.5,77.5C 251.128,74.9783 251.961,72.9783 254,71.5C 255.334,63.7839 254.334,56.4505 251,49.5C 250.751,50.624 250.251,51.624 249.5,52.5C 249.167,52 248.833,51.5 248.5,51C 249.72,48.83 249.72,46.6633 248.5,44.5 Z"/></g>
<g><path style="opacity:1" fill="#585ebb" d="M 208.5,46.5 C 206.477,50.3037 204.977,54.3037 204,58.5C 203.503,61.146 203.336,63.8127 203.5,66.5C 204.5,66.5 205.5,66.5 206.5,66.5C 206.374,68.1998 205.707,69.6998 204.5,71C 205.148,72.4397 205.481,73.9397 205.5,75.5C 204.207,74.158 203.374,72.4913 203,70.5C 201.966,63.6333 202.633,56.9667 205,50.5C 205.949,48.9069 207.115,47.5736 208.5,46.5 Z"/></g>
<g><path style="opacity:1" fill="#535bc3" d="M 139.5,73.5 C 137.956,73.7031 136.622,74.3698 135.5,75.5C 133.533,74.3184 132.2,74.9851 131.5,77.5C 130.833,77.1667 130.167,76.8333 129.5,76.5C 123.294,79.7714 116.628,81.1047 109.5,80.5C 109.229,82.8211 109.896,84.8211 111.5,86.5C 107.87,89.7592 103.537,91.0925 98.5,90.5C 98.915,93.368 97.915,95.5347 95.5,97C 84.4914,96.1888 73.4914,96.5221 62.5,98C 76.0063,98.169 89.3396,98.669 102.5,99.5C 82.1667,99.5 61.8333,99.5 41.5,99.5C 41.5,103.5 41.5,107.5 41.5,111.5C 47.6446,112.49 53.9779,112.823 60.5,112.5C 54.6535,113.167 48.6535,113.833 42.5,114.5C 43.1667,115.167 43.8333,115.833 44.5,116.5C 41.0602,118.223 37.3935,118.89 33.5,118.5C 33.5,119.833 33.5,121.167 33.5,122.5C 29.8333,122.5 26.1667,122.5 22.5,122.5C 22.5,124.5 22.5,126.5 22.5,128.5C 18.8333,128.5 15.1667,128.5 11.5,128.5C 11.5,131.833 11.5,135.167 11.5,138.5C 9.73759,138.357 8.07092,138.691 6.5,139.5C 5.83308,143.982 5.16641,148.316 4.5,152.5C 4.5,144.5 4.5,136.5 4.5,128.5C 5.16348,126.958 5.83015,125.291 6.5,123.5C 7.73619,122.754 9.06953,122.421 10.5,122.5C 11.1667,114.167 11.8333,105.833 12.5,97.5C 15.8333,96.8333 19.1667,96.1667 22.5,95.5C 22.5,93.8333 22.5,92.1667 22.5,90.5C 26.1667,90.5 29.8333,90.5 33.5,90.5C 33.5,88.8333 33.5,87.1667 33.5,85.5C 37.1667,85.5 40.8333,85.5 44.5,85.5C 44.5,83.5 44.5,81.5 44.5,79.5C 47.8333,79.5 51.1667,79.5 54.5,79.5C 54.8588,77.2341 54.1922,75.4007 52.5,74C 53.1667,73.6667 53.8333,73.3333 54.5,73C 52.0645,72.147 49.7312,71.147 47.5,70C 50.3647,69.8171 53.0314,69.3171 55.5,68.5C 81.1769,68.463 106.844,68.2963 132.5,68C 135.595,68.9354 137.929,70.7687 139.5,73.5 Z"/></g>
<g><path style="opacity:1" fill="#4b54bd" d="M 139.5,73.5 C 141.333,78.6082 141.999,83.9415 141.5,89.5C 141.167,89.5 140.833,89.5 140.5,89.5C 138.886,99.7519 137.052,110.085 135,120.5C 134.503,117.854 134.336,115.187 134.5,112.5C 133.167,112.5 131.833,112.5 130.5,112.5C 130.5,114.167 130.5,115.833 130.5,117.5C 128.5,117.5 126.5,117.5 124.5,117.5C 124.5,119.167 124.5,120.833 124.5,122.5C 122.833,122.5 121.167,122.5 119.5,122.5C 119.5,125.167 119.5,127.833 119.5,130.5C 115.833,130.5 112.167,130.5 108.5,130.5C 108.5,131.5 108.5,132.5 108.5,133.5C 105.15,133.335 101.817,133.502 98.5,134C 97.5442,137.394 97.2108,140.894 97.5,144.5C 92.5833,144.296 87.9166,145.296 83.5,147.5C 82.8162,156.251 81.8162,164.917 80.5,173.5C 80.5,153.167 80.5,132.833 80.5,112.5C 88.0191,112.825 95.3524,112.492 102.5,111.5C 102.5,107.5 102.5,103.5 102.5,99.5C 89.3396,98.669 76.0063,98.169 62.5,98C 73.4914,96.5221 84.4914,96.1888 95.5,97C 97.915,95.5347 98.915,93.368 98.5,90.5C 103.537,91.0925 107.87,89.7592 111.5,86.5C 109.896,84.8211 109.229,82.8211 109.5,80.5C 116.628,81.1047 123.294,79.7714 129.5,76.5C 130.167,76.8333 130.833,77.1667 131.5,77.5C 132.2,74.9851 133.533,74.3184 135.5,75.5C 136.622,74.3698 137.956,73.7031 139.5,73.5 Z"/></g>
<g><path style="opacity:1" fill="#565fc7" d="M 12.5,68.5 C 26.8333,68.5 41.1667,68.5 55.5,68.5C 53.0314,69.3171 50.3647,69.8171 47.5,70C 49.7312,71.147 52.0645,72.147 54.5,73C 53.8333,73.3333 53.1667,73.6667 52.5,74C 54.1922,75.4007 54.8588,77.2341 54.5,79.5C 51.1667,79.5 47.8333,79.5 44.5,79.5C 44.5,81.5 44.5,83.5 44.5,85.5C 40.8333,85.5 37.1667,85.5 33.5,85.5C 33.5,87.1667 33.5,88.8333 33.5,90.5C 29.8333,90.5 26.1667,90.5 22.5,90.5C 22.5,92.1667 22.5,93.8333 22.5,95.5C 19.1667,96.1667 15.8333,96.8333 12.5,97.5C 11.8333,105.833 11.1667,114.167 10.5,122.5C 9.06953,122.421 7.73619,122.754 6.5,123.5C 5.83015,125.291 5.16348,126.958 4.5,128.5C 4.33339,110.83 4.50006,93.1635 5,75.5C 5.66885,78.0278 6.50219,78.0278 7.5,75.5C 6.38809,74.7348 5.72142,73.7348 5.5,72.5C 7.05217,69.8881 9.38551,68.5548 12.5,68.5 Z"/></g>
<g><path style="opacity:1" fill="#8c94d0" d="M 171.5,81.5 C 170.421,83.543 168.754,84.8763 166.5,85.5C 167.539,83.4689 169.205,82.1355 171.5,81.5 Z"/></g>
<g><path style="opacity:1" fill="#7a7cbb" d="M 219.5,88.5 C 224.797,89.2745 230.13,89.6079 235.5,89.5C 233.527,90.1627 231.361,90.4961 229,90.5C 225.523,90.6725 222.356,90.0058 219.5,88.5 Z"/></g>
<g><path style="opacity:1" fill="#9398ce" d="M 140.5,89.5 C 140.833,89.5 141.167,89.5 141.5,89.5C 145.833,89.5 150.167,89.5 154.5,89.5C 150.366,90.4849 146.032,90.8182 141.5,90.5C 141.81,93.7131 141.477,96.7131 140.5,99.5C 140.5,96.1667 140.5,92.8333 140.5,89.5 Z"/></g>
<g><path style="opacity:1" fill="#e6ebfc" d="M 102.5,99.5 C 102.5,103.5 102.5,107.5 102.5,111.5C 94.8333,111.5 87.1667,111.5 79.5,111.5C 86.6476,110.508 93.9809,110.175 101.5,110.5C 101.5,107.167 101.5,103.833 101.5,100.5C 81.8333,100.5 62.1667,100.5 42.5,100.5C 42.5,103.833 42.5,107.167 42.5,110.5C 50.0191,110.175 57.3524,110.508 64.5,111.5C 56.8333,111.5 49.1667,111.5 41.5,111.5C 41.5,107.5 41.5,103.5 41.5,99.5C 61.8333,99.5 82.1667,99.5 102.5,99.5 Z"/></g>
<g><path style="opacity:1" fill="#f9fbfd" d="M 79.5,111.5 C 79.5,132.5 79.5,153.5 79.5,174.5C 74.5,174.5 69.5,174.5 64.5,174.5C 64.5,153.5 64.5,132.5 64.5,111.5C 57.3524,110.508 50.0191,110.175 42.5,110.5C 42.5,107.167 42.5,103.833 42.5,100.5C 62.1667,100.5 81.8333,100.5 101.5,100.5C 101.5,103.833 101.5,107.167 101.5,110.5C 93.9809,110.175 86.6476,110.508 79.5,111.5 Z"/></g>
<g><path style="opacity:1" fill="#464eb7" d="M 140.5,89.5 C 140.5,92.8333 140.5,96.1667 140.5,99.5C 140.5,101.5 140.5,103.5 140.5,105.5C 140.5,106.167 140.5,106.833 140.5,107.5C 140.5,138.167 140.5,168.833 140.5,199.5C 140.167,199.5 139.833,199.5 139.5,199.5C 139.667,181.83 139.5,164.164 139,146.5C 138.667,145.833 138.333,145.167 138,144.5C 136.595,148.169 136.428,151.835 137.5,155.5C 135.516,155.617 133.85,154.95 132.5,153.5C 131.808,155.335 132.142,157.168 133.5,159C 127.151,159.406 120.817,159.906 114.5,160.5C 114.5,162.167 114.5,163.833 114.5,165.5C 109.167,165.5 103.833,165.5 98.5,165.5C 98.2756,169.179 97.9422,172.846 97.5,176.5C 92.5835,175.843 88.4168,177.176 85,180.5C 84.5172,181.448 84.3505,182.448 84.5,183.5C 81.8333,183.5 79.1667,183.5 76.5,183.5C 76.5,184.833 76.5,186.167 76.5,187.5C 73.1667,187.5 69.8333,187.5 66.5,187.5C 66.7394,189.467 66.4061,191.301 65.5,193C 62.1832,193.498 58.8499,193.665 55.5,193.5C 55.5,195.167 55.5,196.833 55.5,198.5C 51.8333,198.5 48.1667,198.5 44.5,198.5C 44.5,200.167 44.5,201.833 44.5,203.5C 33.5,203.5 22.5,203.5 11.5,203.5C 9.94233,201.491 7.94233,199.824 5.5,198.5C 4.50083,185.183 4.1675,171.85 4.5,158.5C 5.11742,158.611 5.61742,158.944 6,159.5C 5.6286,168.816 6.1286,178.149 7.5,187.5C 9.16667,187.5 10.8333,187.5 12.5,187.5C 12.9422,183.846 13.2756,180.179 13.5,176.5C 18.5,176.5 23.5,176.5 28.5,176.5C 28.5,174.833 28.5,173.167 28.5,171.5C 30.1667,171.5 31.8333,171.5 33.5,171.5C 33.5,169.833 33.5,168.167 33.5,166.5C 37.1667,166.5 40.8333,166.5 44.5,166.5C 44.5,164.5 44.5,162.5 44.5,160.5C 48.1667,160.5 51.8333,160.5 55.5,160.5C 55.5,158.833 55.5,157.167 55.5,155.5C 56.8333,155.5 58.1667,155.5 59.5,155.5C 61.1949,135.57 62.1949,135.736 62.5,156C 62.409,161.944 61.7424,167.777 60.5,173.5C 60.8333,174.167 61.1667,174.833 61.5,175.5C 62.5063,175.062 62.5063,174.396 61.5,173.5C 61.9569,172.702 62.6236,172.369 63.5,172.5C 63.3284,173.492 63.6618,174.158 64.5,174.5C 69.5,174.5 74.5,174.5 79.5,174.5C 80.1667,174.5 80.5,174.167 80.5,173.5C 81.8162,164.917 82.8162,156.251 83.5,147.5C 87.9166,145.296 92.5833,144.296 97.5,144.5C 97.2108,140.894 97.5442,137.394 98.5,134C 101.817,133.502 105.15,133.335 108.5,133.5C 108.5,132.5 108.5,131.5 108.5,130.5C 112.167,130.5 115.833,130.5 119.5,130.5C 119.5,127.833 119.5,125.167 119.5,122.5C 121.167,122.5 122.833,122.5 124.5,122.5C 124.5,120.833 124.5,119.167 124.5,117.5C 126.5,117.5 128.5,117.5 130.5,117.5C 130.5,115.833 130.5,114.167 130.5,112.5C 131.833,112.5 133.167,112.5 134.5,112.5C 134.336,115.187 134.503,117.854 135,120.5C 137.052,110.085 138.886,99.7519 140.5,89.5 Z"/></g>
<g><path style="opacity:1" fill="#8186d2" d="M 140.5,105.5 C 163.092,106.489 185.758,106.822 208.5,106.5C 208.5,106.833 208.5,107.167 208.5,107.5C 191.833,107.5 175.167,107.5 158.5,107.5C 156.167,107.5 153.833,107.5 151.5,107.5C 150.167,107.5 148.833,107.5 147.5,107.5C 145.5,107.5 143.5,107.5 141.5,107.5C 141.167,107.5 140.833,107.5 140.5,107.5C 140.5,106.833 140.5,106.167 140.5,105.5 Z"/></g>
<g><path style="opacity:1" fill="#7a82e8" d="M 158.5,107.5 C 175.167,107.5 191.833,107.5 208.5,107.5C 211.988,108.143 214.488,110.143 216,113.5C 216.667,142.167 216.667,170.833 216,199.5C 214.589,205.225 213.089,210.892 211.5,216.5C 204.078,232.423 192.411,244.256 176.5,252C 171.113,254.596 165.447,256.096 159.5,256.5C 151.5,256.5 143.5,256.5 135.5,256.5C 135.167,256.5 134.833,256.5 134.5,256.5C 130.227,253.958 125.561,252.125 120.5,251C 122.107,249.951 122.773,248.451 122.5,246.5C 119.881,246.232 117.381,246.565 115,247.5C 114.626,246.584 114.126,245.75 113.5,245C 111.134,244.56 108.801,244.06 106.5,243.5C 102.9,241.57 99.8998,238.903 97.5,235.5C 97.5271,233.801 98.1938,232.467 99.5,231.5C 106.51,231.338 113.51,231.338 120.5,231.5C 125.172,230.776 129.838,229.943 134.5,229C 138.845,226.647 143.178,224.313 147.5,222C 151.321,214.604 153.987,207.104 155.5,199.5C 155.555,171.938 155.222,144.271 154.5,116.5C 155.167,115.5 155.833,114.5 156.5,113.5C 153.75,110.417 154.416,108.417 158.5,107.5 Z"/></g>
<g><path style="opacity:1" fill="#464cac" d="M 208.5,107.5 C 208.5,107.167 208.5,106.833 208.5,106.5C 227.341,106.17 246.007,106.503 264.5,107.5C 262.5,107.5 260.5,107.5 258.5,107.5C 246.586,107.179 234.753,107.512 223,108.5C 223.726,129.866 224.56,151.2 225.5,172.5C 224.69,182.787 224.19,193.12 224,203.5C 223.469,207.009 222.469,210.342 221,213.5C 220.355,214.646 219.522,215.646 218.5,216.5C 219.193,217.518 219.859,218.518 220.5,219.5C 217.084,219.472 214.084,218.472 211.5,216.5C 213.089,210.892 214.589,205.225 216,199.5C 216.667,170.833 216.667,142.167 216,113.5C 214.488,110.143 211.988,108.143 208.5,107.5 Z"/></g>
<g><path style="opacity:1" fill="#7279db" d="M 151.5,107.5 C 153.833,107.5 156.167,107.5 158.5,107.5C 154.416,108.417 153.75,110.417 156.5,113.5C 155.833,114.5 155.167,115.5 154.5,116.5C 155.222,144.271 155.555,171.938 155.5,199.5C 153.987,207.104 151.321,214.604 147.5,222C 143.178,224.313 138.845,226.647 134.5,229C 129.838,229.943 125.172,230.776 120.5,231.5C 113.51,231.338 106.51,231.338 99.5,231.5C 97.8706,229.94 96.704,230.273 96,232.5C 95.3076,231.975 94.8076,231.308 94.5,230.5C 96.482,229.784 98.1487,228.617 99.5,227C 108.147,226.701 116.814,226.034 125.5,225C 129.114,223.68 132.78,222.513 136.5,221.5C 138.411,219.298 140.745,217.631 143.5,216.5C 145.597,212.628 147.931,208.961 150.5,205.5C 150.013,204.554 149.68,203.554 149.5,202.5C 150.232,170.627 150.898,138.96 151.5,107.5 Z"/></g>
<g><path style="opacity:1" fill="#5158c7" d="M 258.5,107.5 C 260.5,107.5 262.5,107.5 264.5,107.5C 268.567,108.592 271.067,111.258 272,115.5C 272.803,139.197 272.637,162.864 271.5,186.5C 270.685,187.429 269.852,188.429 269,189.5C 268.339,192.946 267.505,196.279 266.5,199.5C 260.592,210.292 251.592,216.959 239.5,219.5C 234.797,219.563 230.13,219.229 225.5,218.5C 225.335,215.15 225.502,211.817 226,208.5C 227.704,205.827 228.871,202.993 229.5,200C 229.462,170.847 229.462,141.681 229.5,112.5C 228.5,112.5 227.5,112.5 226.5,112.5C 226.33,111.178 226.663,110.011 227.5,109C 238.008,108.83 248.341,108.33 258.5,107.5 Z"/></g>
<g><path style="opacity:1" fill="#4c51ba" d="M 258.5,107.5 C 248.341,108.33 238.008,108.83 227.5,109C 226.663,110.011 226.33,111.178 226.5,112.5C 227.5,112.5 228.5,112.5 229.5,112.5C 229.462,141.681 229.462,170.847 229.5,200C 228.871,202.993 227.704,205.827 226,208.5C 225.502,211.817 225.335,215.15 225.5,218.5C 230.13,219.229 234.797,219.563 239.5,219.5C 233.167,220.833 226.833,220.833 220.5,219.5C 219.859,218.518 219.193,217.518 218.5,216.5C 219.522,215.646 220.355,214.646 221,213.5C 222.469,210.342 223.469,207.009 224,203.5C 224.19,193.12 224.69,182.787 225.5,172.5C 224.56,151.2 223.726,129.866 223,108.5C 234.753,107.512 246.586,107.179 258.5,107.5 Z"/></g>
<g><path style="opacity:1" fill="#4d55bd" d="M 60.5,112.5 C 61.5,112.5 62.5,112.5 63.5,112.5C 63.5,132.5 63.5,152.5 63.5,172.5C 62.6236,172.369 61.9569,172.702 61.5,173.5C 62.5063,174.396 62.5063,175.062 61.5,175.5C 61.1667,174.833 60.8333,174.167 60.5,173.5C 61.7424,167.777 62.409,161.944 62.5,156C 62.1949,135.736 61.1949,135.57 59.5,155.5C 58.1667,155.5 56.8333,155.5 55.5,155.5C 55.5,157.167 55.5,158.833 55.5,160.5C 51.8333,160.5 48.1667,160.5 44.5,160.5C 44.5,162.5 44.5,164.5 44.5,166.5C 40.8333,166.5 37.1667,166.5 33.5,166.5C 33.5,168.167 33.5,169.833 33.5,171.5C 31.8333,171.5 30.1667,171.5 28.5,171.5C 28.5,173.167 28.5,174.833 28.5,176.5C 23.5,176.5 18.5,176.5 13.5,176.5C 13.2756,180.179 12.9422,183.846 12.5,187.5C 10.8333,187.5 9.16667,187.5 7.5,187.5C 6.1286,178.149 5.6286,168.816 6,159.5C 5.61742,158.944 5.11742,158.611 4.5,158.5C 4.5,156.5 4.5,154.5 4.5,152.5C 5.16641,148.316 5.83308,143.982 6.5,139.5C 8.07092,138.691 9.73759,138.357 11.5,138.5C 11.5,135.167 11.5,131.833 11.5,128.5C 15.1667,128.5 18.8333,128.5 22.5,128.5C 22.5,126.5 22.5,124.5 22.5,122.5C 26.1667,122.5 29.8333,122.5 33.5,122.5C 33.5,121.167 33.5,119.833 33.5,118.5C 37.3935,118.89 41.0602,118.223 44.5,116.5C 43.8333,115.833 43.1667,115.167 42.5,114.5C 48.6535,113.833 54.6535,113.167 60.5,112.5 Z"/></g>
<g><path style="opacity:1" fill="#4f52a1" d="M 79.5,111.5 C 87.1667,111.5 94.8333,111.5 102.5,111.5C 95.3524,112.492 88.0191,112.825 80.5,112.5C 80.5,132.833 80.5,153.167 80.5,173.5C 80.5,174.167 80.1667,174.5 79.5,174.5C 79.5,153.5 79.5,132.5 79.5,111.5 Z"/></g>
<g><path style="opacity:1" fill="#6269be" d="M 141.5,107.5 C 143.5,107.5 145.5,107.5 147.5,107.5C 146.909,108.151 146.243,108.818 145.5,109.5C 146.922,141.813 146.755,174.146 145,206.5C 143.718,210.283 141.218,212.95 137.5,214.5C 136.614,215.325 136.281,216.325 136.5,217.5C 131.221,219.156 125.888,220.823 120.5,222.5C 112.233,222.759 103.9,222.426 95.5,221.5C 94.1861,222.313 93.0195,223.313 92,224.5C 91.6667,223.833 91.3333,223.167 91,222.5C 90.7679,223.737 90.2679,224.737 89.5,225.5C 87.3256,222.485 85.6589,219.151 84.5,215.5C 85.29,214.391 85.79,213.058 86,211.5C 86.4526,213.755 87.7859,215.089 90,215.5C 100.477,214.725 110.977,214.225 121.5,214C 122.993,212.632 124.493,212.465 126,213.5C 128.185,211.46 130.685,210.126 133.5,209.5C 133.31,207.041 134.31,205.374 136.5,204.5C 137.308,202.78 138.308,201.113 139.5,199.5C 139.833,199.5 140.167,199.5 140.5,199.5C 141.117,199.389 141.617,199.056 142,198.5C 142.778,168.152 142.611,137.819 141.5,107.5 Z"/></g>
<g><path style="opacity:1" fill="#5159af" d="M 140.5,107.5 C 140.833,107.5 141.167,107.5 141.5,107.5C 142.611,137.819 142.778,168.152 142,198.5C 141.617,199.056 141.117,199.389 140.5,199.5C 140.5,168.833 140.5,138.167 140.5,107.5 Z"/></g>
<g><path style="opacity:1" fill="#3f47b1" d="M 139.5,199.5 C 138.308,201.113 137.308,202.78 136.5,204.5C 135.5,204.5 134.5,204.5 133.5,204.5C 92.9687,204.824 52.302,204.491 11.5,203.5C 22.5,203.5 33.5,203.5 44.5,203.5C 44.5,201.833 44.5,200.167 44.5,198.5C 48.1667,198.5 51.8333,198.5 55.5,198.5C 55.5,196.833 55.5,195.167 55.5,193.5C 58.8499,193.665 62.1832,193.498 65.5,193C 66.4061,191.301 66.7394,189.467 66.5,187.5C 69.8333,187.5 73.1667,187.5 76.5,187.5C 76.5,186.167 76.5,184.833 76.5,183.5C 79.1667,183.5 81.8333,183.5 84.5,183.5C 84.3505,182.448 84.5172,181.448 85,180.5C 88.4168,177.176 92.5835,175.843 97.5,176.5C 97.9422,172.846 98.2756,169.179 98.5,165.5C 103.833,165.5 109.167,165.5 114.5,165.5C 114.5,163.833 114.5,162.167 114.5,160.5C 120.817,159.906 127.151,159.406 133.5,159C 132.142,157.168 131.808,155.335 132.5,153.5C 133.85,154.95 135.516,155.617 137.5,155.5C 136.428,151.835 136.595,148.169 138,144.5C 138.333,145.167 138.667,145.833 139,146.5C 139.5,164.164 139.667,181.83 139.5,199.5 Z"/></g>
<g><path style="opacity:1" fill="#646cb5" d="M 41.5,111.5 C 49.1667,111.5 56.8333,111.5 64.5,111.5C 64.5,132.5 64.5,153.5 64.5,174.5C 63.6618,174.158 63.3284,173.492 63.5,172.5C 63.5,152.5 63.5,132.5 63.5,112.5C 62.5,112.5 61.5,112.5 60.5,112.5C 53.9779,112.823 47.6446,112.49 41.5,111.5 Z"/></g>
<g><path style="opacity:1" fill="#656abb" d="M 271.5,186.5 C 270.796,191.29 269.129,195.623 266.5,199.5C 267.505,196.279 268.339,192.946 269,189.5C 269.852,188.429 270.685,187.429 271.5,186.5 Z"/></g>
<g><path style="opacity:1" fill="#5459ad" d="M 5.5,72.5 C 5.72142,73.7348 6.38809,74.7348 7.5,75.5C 6.50219,78.0278 5.66885,78.0278 5,75.5C 4.50006,93.1635 4.33339,110.83 4.5,128.5C 4.5,136.5 4.5,144.5 4.5,152.5C 4.5,154.5 4.5,156.5 4.5,158.5C 4.1675,171.85 4.50083,185.183 5.5,198.5C 7.94233,199.824 9.94233,201.491 11.5,203.5C 52.302,204.491 92.9687,204.824 133.5,204.5C 116.008,205.497 98.3412,205.83 80.5,205.5C 56.831,205.667 33.1643,205.5 9.5,205C 5.83451,203.332 3.66784,200.499 3,196.5C 2.33333,156.833 2.33333,117.167 3,77.5C 3.37362,75.5087 4.20695,73.842 5.5,72.5 Z"/></g>
<g><path style="opacity:1" fill="#454d8c" d="M 80.5,206.5 C 97.5033,206.333 114.503,206.5 131.5,207C 128.768,207.413 126.101,208.08 123.5,209C 110.833,209.333 98.1667,209.667 85.5,210C 84.5939,211.699 84.2606,213.533 84.5,215.5C 82.7951,212.739 81.4617,209.739 80.5,206.5 Z"/></g>
<g><path style="opacity:1" fill="#50569f" d="M 133.5,204.5 C 134.5,204.5 135.5,204.5 136.5,204.5C 134.31,205.374 133.31,207.041 133.5,209.5C 130.685,210.126 128.185,211.46 126,213.5C 124.493,212.465 122.993,212.632 121.5,214C 110.977,214.225 100.477,214.725 90,215.5C 87.7859,215.089 86.4526,213.755 86,211.5C 85.79,213.058 85.29,214.391 84.5,215.5C 84.2606,213.533 84.5939,211.699 85.5,210C 98.1667,209.667 110.833,209.333 123.5,209C 126.101,208.08 128.768,207.413 131.5,207C 114.503,206.5 97.5033,206.333 80.5,206.5C 80.5,206.167 80.5,205.833 80.5,205.5C 98.3412,205.83 116.008,205.497 133.5,204.5 Z"/></g>
<g><path style="opacity:1" fill="#6c73cf" d="M 147.5,107.5 C 148.833,107.5 150.167,107.5 151.5,107.5C 150.898,138.96 150.232,170.627 149.5,202.5C 149.68,203.554 150.013,204.554 150.5,205.5C 147.931,208.961 145.597,212.628 143.5,216.5C 140.745,217.631 138.411,219.298 136.5,221.5C 132.78,222.513 129.114,223.68 125.5,225C 116.814,226.034 108.147,226.701 99.5,227C 98.1487,228.617 96.482,229.784 94.5,230.5C 94.8076,231.308 95.3076,231.975 96,232.5C 96.704,230.273 97.8706,229.94 99.5,231.5C 98.1938,232.467 97.5271,233.801 97.5,235.5C 94.3637,232.571 91.697,229.238 89.5,225.5C 90.2679,224.737 90.7679,223.737 91,222.5C 91.3333,223.167 91.6667,223.833 92,224.5C 93.0195,223.313 94.1861,222.313 95.5,221.5C 103.9,222.426 112.233,222.759 120.5,222.5C 125.888,220.823 131.221,219.156 136.5,217.5C 136.281,216.325 136.614,215.325 137.5,214.5C 141.218,212.95 143.718,210.283 145,206.5C 146.755,174.146 146.922,141.813 145.5,109.5C 146.243,108.818 146.909,108.151 147.5,107.5 Z"/></g>
<g><path style="opacity:1" fill="#8086de" d="M 106.5,243.5 C 108.801,244.06 111.134,244.56 113.5,245C 114.126,245.75 114.626,246.584 115,247.5C 117.381,246.565 119.881,246.232 122.5,246.5C 122.773,248.451 122.107,249.951 120.5,251C 125.561,252.125 130.227,253.958 134.5,256.5C 123.84,254.834 114.507,250.501 106.5,243.5 Z"/></g>
<g><path style="opacity:1" fill="#8d8ed8" d="M 135.5,256.5 C 143.5,256.5 151.5,256.5 159.5,256.5C 151.5,259.167 143.5,259.167 135.5,256.5 Z"/></g>
</svg>
